<svg width="17" height="17" viewBox="0 0 17 17" fill="none" xmlns="http://www.w3.org/2000/svg">
<path d="M14.2421 0.292893C14.6326 -0.0976311 15.2666 -0.0976311 15.6572 0.292893L15.7792 0.414964C16.1696 0.805359 16.1693 1.43848 15.7792 1.82903L9.57219 8.03508L15.7792 14.2421C16.1697 14.6326 16.1697 15.2666 15.7792 15.6572L15.6572 15.7792C15.2666 16.1697 14.6326 16.1697 14.2421 15.7792L8.03508 9.57219L1.82903 15.7792C1.43848 16.1693 0.805359 16.1696 0.414964 15.7792L0.292893 15.6572C-0.0976311 15.2666 -0.0976311 14.6326 0.292893 14.2421L6.49895 8.03508L0.292893 1.82903C-0.0973105 1.43848 -0.0975242 0.805381 0.292893 0.414964L0.414964 0.292893C0.805381 -0.0975244 1.43848 -0.0973112 1.82903 0.292893L8.03508 6.49895L14.2421 0.292893Z" fill="white"/>
</svg>
