<svg width="18" height="19" viewBox="0 0 18 19" fill="none" xmlns="http://www.w3.org/2000/svg">
<path fill-rule="evenodd" clip-rule="evenodd" d="M1.76019 12.6632L4.30019 12.3634C4.91019 12.291 5.51019 12.5081 5.94019 12.9526L7.78019 14.8547C10.6102 13.3661 12.9302 10.9782 14.3702 8.04241L12.5202 6.13001C12.0902 5.6855 11.8802 5.06527 11.9502 4.43469L12.2402 1.8297C12.3602 0.785633 13.2102 0 14.2302 0H15.9602C17.0902 0 18.0302 0.971704 17.9602 2.13982C17.4302 10.9679 10.6002 18.0179 2.07019 18.5658C0.940193 18.6381 0.00019455 17.6664 0.00019455 16.4983V14.71C-0.00980568 13.6659 0.750193 12.7872 1.76019 12.6632Z" fill="white"/>
</svg>
