<svg width="20" height="21" viewBox="0 0 20 21" fill="none" xmlns="http://www.w3.org/2000/svg">
<path fill-rule="evenodd" clip-rule="evenodd" d="M18 0H2C0.9 0 0.01 0.930355 0.01 2.06746L0 20.6746L4 15.5059H18C19.1 15.5059 20 14.5756 20 13.4385V2.06746C20 0.930355 19.1 0 18 0ZM11 11.3717H5C4.45 11.3717 4 10.9065 4 10.338C4 9.76941 4.45 9.30423 5 9.30423H11C11.55 9.30423 12 9.76941 12 10.338C12 10.9065 11.55 11.3717 11 11.3717ZM15 6.20299H5C4.45 6.20299 4 5.73782 4 5.16927C4 4.60072 4.45 4.13554 5 4.13554H15C15.55 4.13554 16 4.60072 16 5.16927C16 5.73782 15.55 6.20299 15 6.20299Z" fill="white"/>
</svg>
