<svg width="8" height="11" viewBox="0 0 8 11" fill="none" xmlns="http://www.w3.org/2000/svg">
<path d="M6.20707 6.20707C6.48319 5.93095 6.93092 5.931 7.20707 6.20707C7.48321 6.48321 7.48321 6.93093 7.20707 7.20707L4.4141 10C4.02357 10.3905 3.39054 10.3905 3.00004 10L0.207069 7.20707C-0.068998 6.93092 -0.0690481 6.48319 0.207069 6.20707C0.483186 5.93095 0.930921 5.931 1.20707 6.20707L3.70707 8.70707L6.20707 6.20707ZM6.20707 0.207069C6.48319 -0.0690481 6.93092 -0.0689978 7.20707 0.207069C7.48321 0.483211 7.48321 0.930927 7.20707 1.20707L4.4141 4.00004C4.02357 4.39049 3.39054 4.39054 3.00004 4.00004L0.207069 1.20707C-0.0689979 0.93092 -0.0690481 0.483186 0.207069 0.207069C0.483186 -0.0690482 0.930921 -0.0689978 1.20707 0.207069L3.70707 2.70707L6.20707 0.207069Z" fill="#41F6D7"/>
</svg>
